<svg xmlns="http://www.w3.org/2000/svg" viewBox="0 0 24 24" fill="#374151">
  <path d="M12 2C11.5 2 11 2.19 10.59 2.59L7.29 5.88C6.91 6.26 6.91 6.88 7.29 7.26C7.67 7.64 8.29 7.64 8.67 7.26L10 5.93V11C10 11.55 10.45 12 11 12H13C13.55 12 14 11.55 14 11V5.93L15.33 7.26C15.71 7.64 16.33 7.64 16.71 7.26C17.09 6.88 17.09 6.26 16.71 5.88L13.41 2.59C13 2.19 12.5 2 12 2M5 14C4.45 14 4 14.45 4 15V17C4 18.66 5.34 20 7 20H9V22H15V20H17C18.66 20 20 18.66 20 17V15C20 14.45 19.55 14 19 14H5M7 16H17V17C17 17.55 16.55 18 16 18H8C7.45 18 7 17.55 7 17V16Z" />
</svg>
